<?xml version="1.0" encoding="UTF-8" standalone="no"?>
<!-- Created with Inkscape (http://www.inkscape.org/) -->

<svg
   xmlns:dc="http://purl.org/dc/elements/1.1/"
   xmlns:cc="http://creativecommons.org/ns#"
   xmlns:rdf="http://www.w3.org/1999/02/22-rdf-syntax-ns#"
   xmlns:svg="http://www.w3.org/2000/svg"
   xmlns="http://www.w3.org/2000/svg"
   xmlns:sodipodi="http://sodipodi.sourceforge.net/DTD/sodipodi-0.dtd"
   xmlns:inkscape="http://www.inkscape.org/namespaces/inkscape"
   width="42.604801mm"
   height="7.8134766mm"
   viewBox="0 0 42.604801 7.8134766"
   version="1.1"
   id="svg8"
   inkscape:version="0.92.4 (5da689c313, 2019-01-14)"
   sodipodi:docname="icon.svg">
  <defs
     id="defs2" />
  <sodipodi:namedview
     id="base"
     pagecolor="#000000"
     bordercolor="#666666"
     borderopacity="1.0"
     inkscape:pageopacity="1"
     inkscape:pageshadow="2"
     inkscape:zoom="2"
     inkscape:cx="209.0633"
     inkscape:cy="-129.85278"
     inkscape:document-units="mm"
     inkscape:current-layer="layer1"
     showgrid="false"
     inkscape:pagecheckerboard="true"
     fit-margin-top="0"
     fit-margin-left="0"
     fit-margin-right="0"
     fit-margin-bottom="0"
     showguides="true"
     inkscape:guide-bbox="true"
     inkscape:window-width="1920"
     inkscape:window-height="1017"
     inkscape:window-x="-8"
     inkscape:window-y="-8"
     inkscape:window-maximized="1">
    <sodipodi:guide
       position="13.563929,-2.525697"
       orientation="0,1"
       id="guide35"
       inkscape:locked="false" />
  </sodipodi:namedview>
  <metadata
     id="metadata5">
    <rdf:RDF>
      <cc:Work
         rdf:about="">
        <dc:format>image/svg+xml</dc:format>
        <dc:type
           rdf:resource="http://purl.org/dc/dcmitype/StillImage" />
        <dc:title></dc:title>
      </cc:Work>
    </rdf:RDF>
  </metadata>
  <g
     inkscape:label="Layer 1"
     inkscape:groupmode="layer"
     id="layer1"
     transform="translate(-100.72957,-63.273268)">
    <g
       id="g40">
      <path
         d="m 108.44533,63.273268 h -1.61982 L 106.025,68.11394 h -0.0639 l -2.52556,-4.840672 h -1.42815 l -1.27782,7.69697 h 1.62734 l 0.80803,-4.844431 h 0.0601 l 2.53685,4.844431 h 1.40559 z"
         style="font-style:italic;font-variant:normal;font-weight:bold;font-stretch:normal;font-size:10.58333302px;line-height:1.25;font-family:Inter;-inkscape-font-specification:'Inter Bold Italic';letter-spacing:-1.0530417px;word-spacing:0px;fill:#ffffff;fill-opacity:1;stroke:none;stroke-width:0.26458332"
         id="path16"
         inkscape:connector-curvature="0" />
      <path
         d="m 110.19973,63.273268 h -1.7927 l 1.73257,3.848485 -3.05549,3.848485 h 1.89793 l 2.01445,-2.627042 h 0.0601 l 1.14252,2.627042 h 1.8378 l -1.75512,-3.848485 2.98032,-3.848485 h -1.89042 l -1.99941,2.623284 h -0.0601 z"
         style="font-style:italic;font-variant:normal;font-weight:bold;font-stretch:normal;font-size:10.58333302px;line-height:1.25;font-family:Inter;-inkscape-font-specification:'Inter Bold Italic';letter-spacing:-1.0530417px;word-spacing:0px;fill:#ffffff;fill-opacity:1;stroke:none;stroke-width:0.26458332"
         id="path18"
         inkscape:connector-curvature="0" />
      <path
         d="m 114.72023,64.614976 h 2.35644 l -1.05232,6.355262 h 1.60855 l 1.05232,-6.355262 h 2.35644 l 0.2255,-1.341708 h -6.32144 z"
         style="font-style:italic;font-variant:normal;font-weight:bold;font-stretch:normal;font-size:10.58333302px;line-height:1.25;font-family:Inter;-inkscape-font-specification:'Inter Bold Italic';letter-spacing:-1.0530417px;word-spacing:0px;fill:#ffffff;fill-opacity:1;stroke:none;stroke-width:0.26458332"
         id="path20"
         inkscape:connector-curvature="0" />
    </g>
    <g
       id="g45">
      <path
         d="m 123.54887,70.970238 h 1.17259 l 1.61982,-5.765211 h 0.0601 l 1.61983,5.765211 h 1.16882 l 2.13847,-7.69697 h -1.2252 l -1.4958,5.9644 h -0.0714 l -1.55969,-5.9644 h -1.21017 l -1.55969,5.960642 h -0.0714 l -1.49956,-5.960642 h -1.22144 z"
         style="font-style:normal;font-variant:normal;font-weight:500;font-stretch:normal;font-size:10.58333302px;line-height:1.25;font-family:Inter;-inkscape-font-specification:'Inter Medium';letter-spacing:0px;word-spacing:0px;fill:#808080;fill-opacity:1;stroke:none;stroke-width:0.26458332"
         id="path22"
         inkscape:connector-curvature="0" />
      <path
         d="m 134.23744,71.086745 c 1.25903,0 2.14974,-0.620118 2.4053,-1.559689 l -1.06359,-0.191673 c -0.20295,0.544952 -0.69153,0.823065 -1.33043,0.823065 -0.96213,0 -1.60855,-0.623875 -1.63862,-1.736328 h 4.10405 v -0.398378 c 0,-2.085849 -1.24775,-2.901397 -2.55563,-2.901397 -1.60855,0 -2.66839,1.225201 -2.66839,2.999112 0,1.792702 1.04481,2.965288 2.74731,2.965288 z m -1.62358,-3.506481 c 0.0451,-0.819306 0.63891,-1.529622 1.55217,-1.529622 0.87193,0 1.44318,0.646425 1.44694,1.529622 z"
         style="font-style:normal;font-variant:normal;font-weight:500;font-stretch:normal;font-size:10.58333302px;line-height:1.25;font-family:Inter;-inkscape-font-specification:'Inter Medium';letter-spacing:0px;word-spacing:0px;fill:#808080;fill-opacity:1;stroke:none;stroke-width:0.26458332"
         id="path24"
         inkscape:connector-curvature="0" />
      <path
         d="m 138.0615,70.970238 h 1.09742 v -0.898231 h 0.094 c 0.20295,0.368312 0.61636,1.010979 1.66868,1.010979 1.39808,0 2.41282,-1.119969 2.41282,-2.987837 0,-1.871626 -1.02977,-2.972804 -2.42409,-2.972804 -1.07112,0 -1.45822,0.653942 -1.65741,1.010979 h -0.0677 v -2.860056 h -1.12372 z m 1.10117,-2.886364 c 0,-1.20641 0.52616,-2.006924 1.50708,-2.006924 1.01849,0 1.52962,0.860647 1.52962,2.006924 0,1.157552 -0.52616,2.040749 -1.52962,2.040749 -0.96588,0 -1.50708,-0.826822 -1.50708,-2.040749 z"
         style="font-style:normal;font-variant:normal;font-weight:500;font-stretch:normal;font-size:10.58333302px;line-height:1.25;font-family:Inter;-inkscape-font-specification:'Inter Medium';letter-spacing:0px;word-spacing:0px;fill:#808080;fill-opacity:1;stroke:none;stroke-width:0.26458332"
         id="path26"
         inkscape:connector-curvature="0" />
    </g>
    <path
       style="fill:#ff0000;stroke:#ff0000;stroke-width:0.35355338"
       d="m 24.819552,27.333983 c 0.01208,-0.27578 1.006445,-6.345209 2.209709,-13.487619 l 2.18775,-12.98619961 2.267731,5.03124881 c 1.247251,2.7671867 2.625978,5.8407778 3.063836,6.8302018 l 0.796106,1.798953 -5.273545,6.657417 c -2.90045,3.66158 -5.263664,6.431779 -5.251587,6.155998 z"
       id="path47"
       inkscape:connector-curvature="0"
       transform="matrix(0.26458333,0,0,0.26458333,100.72957,63.273268)" />
  </g>
</svg>
